<?xml version="1.0" encoding="UTF-8"?>
<svg version="1.1" xmlns="http://www.w3.org/2000/svg" width="640" height="640">
<path d="M0 0 C1.41695229 4.25085687 -0.03911352 7.49019681 -1.3125 11.625 C-1.58102783 12.50164307 -1.84955566 13.37828613 -2.1262207 14.28149414 C-11.29283351 43.31967855 -24.2208561 69.77637323 -44 93 C-44.96873047 94.17175781 -44.96873047 94.17175781 -45.95703125 95.3671875 C-66.93944523 120.06746303 -98.92669764 134.16688222 -130.66357422 137.82128906 C-164.77488703 140.43043023 -196.58757726 133.10727282 -229.23242188 123.97314453 C-276.20728693 109.55118335 -276.20728693 109.55118335 -322.79296875 118.51171875 C-334.34415629 126.30110362 -339.26854846 138.70693582 -342 152 C-343.35322473 159.30741354 -344.15507893 166.64809551 -344.625 174.0625 C-344.67092285 174.78284424 -344.7168457 175.50318848 -344.76416016 176.24536133 C-345.02150227 181.31330644 -344.94174742 186.31596565 -344.7421875 191.38671875 C-344.70399902 192.68279053 -344.66581055 193.9788623 -344.62646484 195.31420898 C-344.54329777 197.90250315 -344.42227335 200.48990622 -344.26025391 203.07446289 C-344.00770486 211.88581622 -344.00770486 211.88581622 -346.83251953 215.05761719 C-349.15495545 216.61887777 -351.46134388 217.82920425 -354 219 C-361.61076536 223.84494838 -368.33430845 228.8521461 -374.8203125 235.09375 C-377 237 -377 237 -379 237 C-379 237.66 -379 238.32 -379 239 C-379.66 239 -380.32 239 -381 239 C-381.25523437 239.56976563 -381.51046875 240.13953125 -381.7734375 240.7265625 C-383.13774355 243.25530811 -384.75609745 245.19337272 -386.625 247.375 C-389.99295182 251.51259346 -392.79981883 255.75513462 -395.4375 260.375 C-395.7792627 260.96974121 -396.12102539 261.56448242 -396.47314453 262.17724609 C-398.08472079 265.06530217 -399.42744262 267.72593952 -400 271 C-400.99 270.67 -401.98 270.34 -403 270 C-403.95462808 263.08053046 -404.46621149 256.15888308 -404.9375 249.19140625 C-405.02249756 247.95245102 -405.10749512 246.71349579 -405.19506836 245.43699646 C-405.42001241 242.14402671 -405.6426194 238.85090809 -405.86462402 235.55773926 C-406.08579518 232.2980075 -406.31315693 229.03870346 -406.5390625 225.77929688 C-413.79884723 119.63013973 -413.79884723 119.63013973 -382.921875 83.1953125 C-381.97054687 82.10863281 -381.97054687 82.10863281 -381 81 C-380.34515625 80.21367187 -379.6903125 79.42734375 -379.015625 78.6171875 C-375.51612202 74.4669505 -375.51612202 74.4669505 -374 73 C-373.34 73 -372.68 73 -372 73 C-372 72.34 -372 71.68 -372 71 C-364.75774505 64.13509701 -356.32385302 58.46119002 -348 53 C-347.44924805 52.63406738 -346.89849609 52.26813477 -346.33105469 51.89111328 C-307.57848463 26.41967649 -259.35547209 18.85973399 -213.8125 18.6875 C-213.02763214 18.68355225 -212.24276428 18.67960449 -211.43411255 18.67553711 C-193.82456964 18.63595785 -176.28583704 19.76334575 -158.71963501 20.8578949 C-103.15748545 24.31766609 -51.09388977 25.48076109 0 0 Z M-309.16650391 64.05957031 C-311.17711694 65.09084613 -313.20347 66.08728542 -315.23046875 67.0859375 C-324.66985449 71.82033674 -332.9015556 77.23808209 -341 84 C-341.74636719 84.59425781 -342.49273437 85.18851563 -343.26171875 85.80078125 C-362.79141723 101.87729139 -371.98005826 125.5828332 -374.47265625 150.1484375 C-375.23578018 160.74618672 -375.09791861 171.38127106 -375 182 C-374.34 182.33 -373.68 182.66 -373 183 C-372.896875 182.01 -372.79375 181.02 -372.6875 180 C-372.19463983 176.53573681 -371.09211005 173.50490562 -369.83178711 170.23974609 C-368.98732509 167.96587037 -368.24596461 165.67982181 -367.52734375 163.36328125 C-355.63686901 125.298687 -335.02489193 96.94918494 -299.3203125 78.203125 C-297.88174026 77.46575361 -296.44171098 76.73121549 -295 76 C-294.37448242 75.67837891 -293.74896484 75.35675781 -293.10449219 75.02539062 C-262.67807458 59.53978036 -228.82006454 52.48418911 -195.01464844 49.59472656 C-190.87532229 49.32689597 -190.87532229 49.32689597 -187 48 C-184.87551587 47.95317941 -182.74966871 47.96247826 -180.625 48 C-174.02632148 48.05453453 -167.56110163 47.6729335 -161 47 C-161 46.67 -161 46.34 -161 46 C-210.81794249 40.33637078 -263.54757139 40.59109283 -309.16650391 64.05957031 Z M-83 54 C-83.99 54.99 -84.98 55.98 -86 57 C-84.35 56.34 -82.7 55.68 -81 55 C-81.66 54.67 -82.32 54.34 -83 54 Z M-93.078125 58.44140625 C-93.89732422 58.77495117 -94.71652344 59.10849609 -95.56054688 59.45214844 C-96.89182617 60.00177246 -96.89182617 60.00177246 -98.25 60.5625 C-109.61439264 65.06172693 -121.09521785 68.27717551 -133 71 C-133.84965332 71.19577637 -134.69930664 71.39155273 -135.57470703 71.59326172 C-161.06300994 77.31227148 -187.59818145 78.85321197 -213.66796875 79.2109375 C-214.68640366 79.22532364 -215.70483856 79.23970978 -216.75413513 79.25453186 C-220.94224985 79.31131965 -225.13024552 79.3660968 -229.31860352 79.40136719 C-251.97359757 79.60695111 -273.45112585 81.70902754 -295 89 C-295 89.33 -295 89.66 -295 90 C-290.22748121 89.53948293 -285.45961318 89.07112851 -280.703125 88.46484375 C-259.6235231 85.89195872 -238.30091053 86.70548113 -217.13061523 87.64379883 C-171.75153469 89.65121789 -124.43979068 84.08009397 -86 58 C-89.43333622 56.85555459 -89.89140682 57.09953603 -93.078125 58.44140625 Z " fill="#008860" transform="translate(589,64)"/>
<path d="M0 0 C0.66 0.33 1.32 0.66 2 1 C-2.14872776 24.68005522 -12.34891366 48.62466314 -28 67 C-28.81726563 67.99 -29.63453125 68.98 -30.4765625 70 C-46.72500589 89.09648516 -69.25379242 99.90874009 -94 103 C-98.97911662 103.36680838 -103.94652155 103.48582363 -108.9375 103.5 C-109.9815802 103.50601227 -109.9815802 103.50601227 -111.04675293 103.512146 C-127.66996735 103.53512826 -143.72977138 100.73879719 -160.02783203 97.72680664 C-168.91612466 96.09085796 -177.56877241 94.66416524 -186.625 94.8125 C-187.75808594 94.8134668 -187.75808594 94.8134668 -188.9140625 94.81445312 C-193.23457946 94.84729489 -197.4964317 95.10566721 -201.79833984 95.51049805 C-202.77620453 95.60179489 -203.75406921 95.69309174 -204.76156616 95.78715515 C-205.86959091 95.89251335 -205.86959091 95.89251335 -207 96 C-206.98445572 96.8363649 -206.96891144 97.6727298 -206.95289612 98.53443909 C-206.81236139 106.43464925 -206.70592424 114.33443688 -206.6373148 122.23561192 C-206.60085455 126.2973489 -206.55144166 130.35804913 -206.47192383 134.41918945 C-206.39559827 138.34205675 -206.35395552 142.26393007 -206.3358593 146.18748283 C-206.32297197 147.68066996 -206.29780411 149.17380552 -206.2598896 150.66656685 C-205.97437751 162.37854661 -205.97437751 162.37854661 -208.52680969 166.4138031 C-210.26171546 168.14529579 -212.03327527 169.54708607 -214 171 C-221.79371347 181.39618369 -227.54251051 194.0333694 -229 207 C-228.01 204.03 -227.02 201.06 -226 198 C-225.34 198 -224.68 198 -224 198 C-223.72929687 197.11441406 -223.45859375 196.22882813 -223.1796875 195.31640625 C-216.37393591 176.18368075 -198.6932881 163.18157687 -181.12109375 154.796875 C-175.28327325 152.14845089 -169.2424676 150.44433564 -163 149 C-162.27087402 148.823479 -161.54174805 148.64695801 -160.79052734 148.46508789 C-157.30533107 147.88422185 -153.88500052 147.85685226 -150.36328125 147.8671875 C-149.64262985 147.86623077 -148.92197845 147.86527405 -148.17948914 147.86428833 C-146.6641735 147.86361062 -145.14885491 147.86543629 -143.63354492 147.86962891 C-141.30966741 147.87500655 -138.9859811 147.8696581 -136.66210938 147.86328125 C-135.18749957 147.86394164 -133.71288989 147.865222 -132.23828125 147.8671875 C-131.54245438 147.86516327 -130.8466275 147.86313904 -130.12971497 147.86105347 C-125.2299572 147.8850214 -125.2299572 147.8850214 -123 149 C-124.90686653 163.334376 -129.318133 178.17081536 -136 191 C-136.44988281 191.9075 -136.89976562 192.815 -137.36328125 193.75 C-151.43546827 221.05990473 -175.9998122 234.47520753 -204 244 C-204.66 244 -205.32 244 -206 244 C-205.67 244.99 -205.34 245.98 -205 247 C-205.66 247.33 -206.32 247.66 -207 248 C-207.89858054 250.61681224 -208.71151654 253.22507933 -209.5 255.875 C-215.14697454 273.72649376 -224.123491 290.27506741 -239 302 C-239.81082031 302.65871094 -240.62164062 303.31742188 -241.45703125 303.99609375 C-254.22874395 313.88809377 -269.75217777 319.4513284 -286 319 C-285.59394531 318.00419922 -285.59394531 318.00419922 -285.1796875 316.98828125 C-272.41904727 284.66414292 -269.76864563 252.82857516 -269.75 218.3125 C-269.74899292 217.02231964 -269.74798584 215.73213928 -269.74694824 214.40286255 C-269.75782297 193.77782634 -270.38378115 173.46625842 -273 153 C-273.14453613 151.85499023 -273.28907227 150.70998047 -273.43798828 149.53027344 C-277.4445802 119.08372444 -284.37718302 88.67327533 -305 65 C-305.515625 64.34128906 -306.03125 63.68257813 -306.5625 63.00390625 C-315.96155958 51.32557472 -330.06074869 42.02352836 -343.84765625 36.40625 C-347 35 -347 35 -348 33 C-321.067121 35.95853595 -296.80504405 51.9024665 -279.375 72.125 C-272.70569063 80.57441754 -265.99428176 90.57728152 -263 101 C-262.01 101 -261.02 101 -260 101 C-259.74476563 100.15824219 -259.48953125 99.31648438 -259.2265625 98.44921875 C-253.8488314 83.32649086 -243.87913173 70.55907747 -233 59 C-232.4225 58.34644531 -231.845 57.69289063 -231.25 57.01953125 C-202.43693074 25.82681118 -157.50508334 17.37134693 -117.25 15.25 C-116.41162598 15.20520508 -115.57325195 15.16041016 -114.70947266 15.11425781 C-109.9888478 14.9187347 -105.68368845 15.26865994 -101 16 C-97.77423614 16.26558228 -94.54573864 16.41843896 -91.3125 16.5625 C-89.91813721 16.62618774 -89.91813721 16.62618774 -88.49560547 16.69116211 C-76.00294745 17.19916825 -63.50013443 17.0893063 -51 17 C-50.67 16.34 -50.34 15.68 -50 15 C-48.53046875 15.05607422 -48.53046875 15.05607422 -47.03125 15.11328125 C-42.68504391 15.11000192 -38.70375397 14.22151819 -34.5 13.1875 C-33.77941406 13.02185547 -33.05882812 12.85621094 -32.31640625 12.68554688 C-27.61308384 11.55862062 -23.40589893 9.9902885 -19 8 C-17.295298 7.431766 -15.58919286 6.86760359 -13.87890625 6.31640625 C-12.73228516 5.94322266 -12.73228516 5.94322266 -11.5625 5.5625 C-10.80066406 5.31628906 -10.03882813 5.07007813 -9.25390625 4.81640625 C-6.983004 4.05085833 -6.983004 4.05085833 -4.90234375 2.90234375 C-3 2 -3 2 0 2 C0 1.34 0 0.68 0 0 Z M-73 43 C-73 43.66 -73 44.32 -73 45 C-68.52116304 44.55296014 -68.52116304 44.55296014 -65 42 C-67.83967231 42 -70.23735711 42.40267181 -73 43 Z M-83.40625 44.62109375 C-101.06196906 46.68322457 -118.51837753 47.43317265 -136.29101562 47.53295898 C-150.84650779 47.66575485 -165.35273176 48.77888714 -179.1875 53.6875 C-179.92178223 53.94168701 -180.65606445 54.19587402 -181.41259766 54.45776367 C-193.94872662 58.97590897 -204.66739381 65.63699801 -215 74 C-216.01513672 74.80244141 -216.01513672 74.80244141 -217.05078125 75.62109375 C-221.54778277 79.30045863 -225.28202715 83.54747325 -229 88 C-228.67 88.66 -228.34 89.32 -228 90 C-226.60201172 88.93072266 -226.60201172 88.93072266 -225.17578125 87.83984375 C-197.90696689 67.2340955 -166.51780924 57.7146993 -132.63845825 55.72045898 C-120.04405325 54.96645826 -107.51075035 54.1264746 -95.0625 52 C-94.16080078 51.8460376 -93.25910156 51.6920752 -92.33007812 51.53344727 C-83.45866793 49.95152818 -83.45866793 49.95152818 -75 47 C-74.67 46.01 -74.34 45.02 -74 44 C-77.25567314 44 -80.19089241 44.21971609 -83.40625 44.62109375 Z M-231 90 C-230.67 90.66 -230.34 91.32 -230 92 C-229.67 91.34 -229.34 90.68 -229 90 C-229.66 90 -230.32 90 -231 90 Z M-162 173 C-163.93631485 173.88404305 -163.93631485 173.88404305 -166.03515625 175.28125 C-166.84025635 175.79002686 -167.64535645 176.29880371 -168.47485352 176.82299805 C-169.32877686 177.37640869 -170.1827002 177.92981934 -171.0625 178.5 C-171.9299585 179.0566333 -172.79741699 179.6132666 -173.69116211 180.18676758 C-196.84439151 195.17340405 -214.36880611 213.94819777 -226 239 C-226.42732422 239.91845703 -226.42732422 239.91845703 -226.86328125 240.85546875 C-228.36983496 244.20415922 -229.44955825 247.36708443 -230 251 C-226.83574162 247.11625828 -223.87384132 243.1180011 -220.9375 239.0625 C-216.56521198 233.04376876 -212.04660088 227.16505991 -207.35327148 221.39282227 C-204.80979302 218.55282153 -204.80979302 218.55282153 -204 215 C-203.34 215 -202.68 215 -202 215 C-200.65186756 213.46445901 -199.37284977 211.86809091 -198.125 210.25 C-188.75256217 198.53822583 -177.7451988 188.38116871 -165.6875 179.48046875 C-165.130625 178.99191406 -164.57375 178.50335938 -164 178 C-164 177.34 -164 176.68 -164 176 C-162.68 175.34 -161.36 174.68 -160 174 C-160.99 173.505 -160.99 173.505 -162 173 Z " fill="#007E5B" transform="translate(451,256)"/>
<path d="M0 0 C0.76957031 0.62519531 1.53914063 1.25039063 2.33203125 1.89453125 C3.25628906 2.59191406 4.18054688 3.28929687 5.1328125 4.0078125 C6.22142578 4.94173828 6.22142578 4.94173828 7.33203125 5.89453125 C7.33203125 6.55453125 7.33203125 7.21453125 7.33203125 7.89453125 C8.81703125 8.38953125 8.81703125 8.38953125 10.33203125 8.89453125 C23.78149575 24.53070938 28.59928632 41.9656025 32.33203125 61.89453125 C31.67203125 61.89453125 31.01203125 61.89453125 30.33203125 61.89453125 C29.96335938 61.064375 29.5946875 60.23421875 29.21484375 59.37890625 C26.96143267 55.20869322 24.22752789 51.7789535 21.20703125 48.14453125 C20.62735596 47.44078369 20.04768066 46.73703613 19.45043945 46.01196289 C12.59630572 37.73403735 5.77383597 29.60397865 -2.66796875 22.89453125 C-3.18069336 22.48589844 -3.69341797 22.07726562 -4.22167969 21.65625 C-28.29147417 2.68471409 -54.33058369 -5.14918161 -84.66796875 -6.10546875 C-77.42949456 14.21793954 -67.18089589 33.79881844 -52.66796875 49.89453125 C-51.42273438 51.28091797 -51.42273438 51.28091797 -50.15234375 52.6953125 C-34.5668834 69.16941752 -13.53932894 78.82635445 9.171875 79.62109375 C9.88472656 79.71132813 10.59757812 79.8015625 11.33203125 79.89453125 C11.66203125 80.55453125 11.99203125 81.21453125 12.33203125 81.89453125 C1.49755411 84.42503271 -8.47478128 86.09971277 -19.41796875 83.26953125 C-20.10971191 83.09131836 -20.80145508 82.91310547 -21.51416016 82.72949219 C-32.49268212 79.73327585 -41.15035057 74.34573817 -49.66796875 66.89453125 C-50.50199219 66.18167969 -51.33601563 65.46882813 -52.1953125 64.734375 C-70.11802465 49.07616577 -81.80314903 29.70345171 -92.32080078 8.59472656 C-93.59648598 6.03780769 -94.89183587 3.49205813 -96.1953125 0.94921875 C-96.93693356 -0.50613578 -97.67786944 -1.96183977 -98.41796875 -3.41796875 C-98.75352783 -4.07563232 -99.08908691 -4.7332959 -99.43481445 -5.41088867 C-101.66796875 -9.87177553 -101.66796875 -9.87177553 -101.66796875 -12.10546875 C-98.64772645 -12.75417214 -95.62682896 -13.39951031 -92.60546875 -14.04296875 C-91.75791016 -14.22537109 -90.91035156 -14.40777344 -90.03710938 -14.59570312 C-89.20244141 -14.77294922 -88.36777344 -14.95019531 -87.5078125 -15.1328125 C-86.74847412 -15.29515381 -85.98913574 -15.45749512 -85.20678711 -15.62475586 C-56.59051483 -21.04310763 -23.58397017 -18.23579426 0 0 Z " fill="#B7D9CE" transform="translate(150.66796875,273.10546875)"/>
<path d="M0 0 C0.89577736 2.46286246 1.11653625 3.66349496 0.24658203 6.17553711 C-0.16221191 6.9516333 -0.57100586 7.72772949 -0.9921875 8.52734375 C-1.4454541 9.39568848 -1.8987207 10.2640332 -2.36572266 11.15869141 C-2.86378418 12.07569824 -3.3618457 12.99270508 -3.875 13.9375 C-4.37950684 14.88028809 -4.88401367 15.82307617 -5.40380859 16.79443359 C-11.75753053 28.48263875 -19.37590791 38.87404627 -28 49 C-28.96873047 50.17175781 -28.96873047 50.17175781 -29.95703125 51.3671875 C-50.93231113 76.05906483 -82.91197396 90.15934263 -114.63720703 93.82568359 C-120.24821177 94.23963869 -125.87675802 94.19098598 -131.5 94.1875 C-132.4972963 94.18759064 -132.4972963 94.18759064 -133.51473999 94.18768311 C-154.31720041 94.16069667 -154.31720041 94.16069667 -163 92 C-163.33 91.34 -163.66 90.68 -164 90 C-162.72769531 90.0721875 -161.45539063 90.144375 -160.14453125 90.21875 C-126.6459218 92.0326148 -93.02453645 91.5047452 -63.14453125 74.13671875 C-61 73 -61 73 -59 73 C-58.505 71.515 -58.505 71.515 -58 70 C-57.32324219 69.74089844 -56.64648438 69.48179687 -55.94921875 69.21484375 C-51.62181012 67.43229529 -48.38681916 64.54333538 -44.8125 61.5625 C-43.67530518 60.61479736 -43.67530518 60.61479736 -42.51513672 59.64794922 C-23.33831819 43.422041 -11.4774015 21.9856002 0 0 Z " fill="#036747" transform="translate(573,108)"/>
<path d="M0 0 C1.80307617 0.00483398 1.80307617 0.00483398 3.64257812 0.00976562 C4.88845703 0.01814453 6.13433594 0.02652344 7.41796875 0.03515625 C8.68318359 0.03966797 9.94839844 0.04417969 11.25195312 0.04882812 C14.36983985 0.06059374 17.48763008 0.07703353 20.60546875 0.09765625 C20.60546875 0.42765625 20.60546875 0.75765625 20.60546875 1.09765625 C19.40792969 1.13503906 18.21039063 1.17242187 16.9765625 1.2109375 C0.22294294 1.84034379 -17.41356539 2.62262014 -29.578125 15.671875 C-39.83362913 29.36793535 -41.97030127 47.60542841 -43.01953125 64.16015625 C-43.08841553 65.24067261 -43.08841553 65.24067261 -43.15869141 66.34301758 C-43.41603352 71.41096269 -43.33627867 76.4136219 -43.13671875 81.484375 C-43.09853027 82.78044678 -43.0603418 84.07651855 -43.02099609 85.41186523 C-42.93782902 88.0001594 -42.8168046 90.58756247 -42.65478516 93.17211914 C-42.40223611 101.98347247 -42.40223611 101.98347247 -45.22705078 105.15527344 C-47.5494867 106.71653402 -49.85587513 107.9268605 -52.39453125 109.09765625 C-59.95363767 113.90971898 -66.61742889 118.85360559 -73.01953125 125.09375 C-75.28423197 127.00459123 -76.50452657 127.72971584 -79.39453125 128.09765625 C-70.94447595 117.36380223 -59.57836108 109.18957116 -47.39453125 103.09765625 C-47.38518555 102.01685791 -47.37583984 100.93605957 -47.36621094 99.82250977 C-47.15591141 78.98422786 -46.89167201 58.54308955 -42.39453125 38.09765625 C-42.23460693 37.36659668 -42.07468262 36.63553711 -41.90991211 35.88232422 C-39.33591808 24.85685509 -33.46784453 13.30294129 -23.70117188 7.00585938 C-15.92516073 2.5302774 -9.02152486 -0.04275604 0 0 Z " fill="#046446" transform="translate(287.39453125,173.90234375)"/>
<path d="M0 0 C-0.33 0.99 -0.66 1.98 -1 3 C-1.66 3 -2.32 3 -3 3 C-2.505 4.485 -2.505 4.485 -2 6 C-2.66 6.33 -3.32 6.66 -4 7 C-4.89858054 9.61681224 -5.71151654 12.22507933 -6.5 14.875 C-12.14697454 32.72649376 -21.123491 49.27506741 -36 61 C-36.81082031 61.65871094 -37.62164062 62.31742188 -38.45703125 62.99609375 C-51.22874395 72.88809377 -66.75217777 78.4513284 -83 78 C-82.7215625 77.31421875 -82.443125 76.6284375 -82.15625 75.921875 C-81.33976924 73.85860604 -80.55063647 71.78441404 -79.78125 69.703125 C-79.3584375 68.56359375 -78.935625 67.4240625 -78.5 66.25 C-78.0771875 65.10015625 -77.654375 63.9503125 -77.21875 62.765625 C-76 60 -76 60 -74 59 C-74.44356295 65.20988129 -75.91532502 69.60540561 -79 75 C-71.8553625 74.04812823 -64.98485827 72.91750025 -58.12109375 70.68359375 C-56.0954329 70.03075646 -54.06972184 69.49279091 -52 69 C-52 68.34 -52 67.68 -52 67 C-51.0925 66.690625 -50.185 66.38125 -49.25 66.0625 C-40.01022074 62.0811317 -32.03835059 54.94125511 -26 47 C-25.42894531 46.27554688 -24.85789063 45.55109375 -24.26953125 44.8046875 C-16.12279736 33.90640772 -11.51583839 21.3717592 -7.39648438 8.52587891 C-7.12642578 7.70651855 -6.85636719 6.8871582 -6.578125 6.04296875 C-6.34512695 5.31102295 -6.11212891 4.57907715 -5.87207031 3.82495117 C-4.59296261 1.14820703 -2.98916954 0 0 0 Z " fill="#035C43" transform="translate(248,497)"/>
<path d="M0 0 C3.63 0 7.26 0 11 0 C8.8841897 14.38751005 4.73233363 29.07391942 -2 42 C-2.44988281 42.9075 -2.89976562 43.815 -3.36328125 44.75 C-14.37865116 66.1275373 -32.23792016 79.8984331 -54 89 C-54.79664063 89.3403125 -55.59328125 89.680625 -56.4140625 90.03125 C-60.04307292 91.49916433 -63.07377762 92.36808335 -67 92 C-63.36719452 88.83318266 -59.33689782 87.42884044 -54.875 85.8125 C-54.14667969 85.53986328 -53.41835938 85.26722656 -52.66796875 84.98632812 C-47.28148496 83 -47.28148496 83 -45 83 C-45 82.34 -45 81.68 -45 81 C-44.030625 80.62875 -43.06125 80.2575 -42.0625 79.875 C-23.44841845 71.78029921 -10.17080172 54.74645806 -2.3359375 36.47265625 C2.13709088 24.84539828 5.75094985 13.27113328 8 1 C5.36 1 2.72 1 0 1 C0 0.67 0 0.34 0 0 Z " fill="#035F43" transform="translate(317,405)"/>
<path d="M0 0 C3.06153429 3.36280229 3.37606598 5.70005587 3.5 10.1875 C3.69026012 14.84527496 4.01242526 19.38613794 4.6940918 23.99780273 C7.40138838 42.47142345 7.42511567 60.76045413 7.3225708 79.3817749 C7.30895417 82.75284024 7.31435007 86.12377549 7.31969929 89.49485588 C7.32303017 92.75645127 7.31643272 96.01796493 7.30657005 99.27954483 C7.30273331 100.82890522 7.30156348 102.37827468 7.3031559 103.92763901 C7.30352565 106.07026622 7.29094647 108.21242379 7.2746582 110.35498047 C7.27005081 111.56975067 7.26544342 112.78452087 7.26069641 114.03610229 C7 117 7 117 5 120 C4.03891561 112.8392181 3.91234452 105.88195232 4.0078125 98.6640625 C4.02773795 96.22836056 4.0466612 93.79265026 4.06469727 91.35693359 C4.08030197 89.46089386 4.08030197 89.46089386 4.09622192 87.52655029 C4.27998775 62.61273702 3.6555962 38.15994925 0.40625 13.4453125 C0.04943978 10.41928735 -0.10475481 7.54234626 -0.0625 4.5 C-0.05347656 3.6440625 -0.04445312 2.788125 -0.03515625 1.90625 C-0.02355469 1.2771875 -0.01195312 0.648125 0 0 Z " fill="#066448" transform="translate(177,391)"/>
<path d="M0 0 C-2.31960019 2.31960019 -4.63477122 3.10576129 -7.66186523 4.25732422 C-16.07107226 7.46366708 -23.06369728 11.16521705 -30 17 C-30.86109375 17.69996094 -31.7221875 18.39992188 -32.609375 19.12109375 C-48.63667737 32.74430077 -56.00978159 51.39564884 -62 71 C-63.28722703 67.13831892 -62.27470417 64.5165175 -61.1875 60.75 C-61.00896484 60.10675781 -60.83042969 59.46351563 -60.64648438 58.80078125 C-60.10687971 56.86443815 -59.55511817 54.93194771 -59 53 C-58.62103855 51.67189075 -58.2421293 50.3437666 -57.86328125 49.015625 C-57.57839844 48.02046875 -57.29351562 47.0253125 -57 46 C-56.34 46 -55.68 46 -55 46 C-54.72929687 45.11441406 -54.45859375 44.22882813 -54.1796875 43.31640625 C-46.64127589 22.12398421 -27.12651918 10.16106643 -8 1 C-5.29120665 -0.35439668 -2.99066732 -0.06501451 0 0 Z " fill="#036747" transform="translate(282,408)"/>
<path d="M0 0 C0.66 0 1.32 0 2 0 C0.40844727 4.47517247 -1.89318003 8.2947955 -4.375 12.3125 C-12.10790581 23.54087202 -12.10790581 23.54087202 -16 36 C-15.26136719 35.00742187 -14.52273437 34.01484375 -13.76171875 32.9921875 C-8.51542281 25.95765859 -3.24399346 18.94149061 2.125 12 C2.58559814 11.39526855 3.04619629 10.79053711 3.52075195 10.16748047 C4.63316419 8.74013205 5.81076202 7.36400055 7 6 C7.66 6 8.32 6 9 6 C7.36470318 9.70372632 5.05800704 12.63821505 2.5625 15.8125 C-1.3426948 20.82343046 -5.17478591 25.88111334 -8.9375 31 C-9.39761475 31.62237549 -9.85772949 32.24475098 -10.33178711 32.88598633 C-12.24217258 35.4921491 -13.96278869 37.92739256 -15.44140625 40.8125 C-17.52947616 43.74312443 -19.5791161 44.16378393 -23 45 C-21.78861176 42.0658588 -20.57071329 39.134702 -19.34375 36.20703125 C-18.58478257 34.39565841 -17.83080513 32.58211785 -17.09375 30.76171875 C-13.76549962 22.82630698 -9.31151769 15.43053071 -5 8 C-4.46375 7.07316406 -3.9275 6.14632813 -3.375 5.19140625 C-2.31446723 3.42069528 -1.1693225 1.70083273 0 0 Z " fill="#036044" transform="translate(239,467)"/>
<path d="M0 0 C0.82411366 2.35046965 1.12889588 3.60884142 0.33837891 6.0078125 C-0.21197021 7.05582031 -0.21197021 7.05582031 -0.7734375 8.125 C-1.18134521 8.9080249 -1.58925293 9.6910498 -2.00952148 10.49780273 C-2.68543335 11.73639038 -2.68543335 11.73639038 -3.375 13 C-3.83398682 13.85215088 -4.29297363 14.70430176 -4.76586914 15.58227539 C-8.61597859 22.58301685 -12.84105784 28.87863333 -18 35 C-18.81855469 35.99257813 -19.63710938 36.98515625 -20.48046875 38.0078125 C-28.53563151 47.4582984 -39.91568585 58.14053791 -52 62 C-54.23706055 61.6015625 -54.23706055 61.6015625 -56 61 C-54.97261719 60.45472656 -53.94523437 59.90945313 -52.88671875 59.34765625 C-44.17822197 54.64249675 -36.36100511 49.69621811 -29 43 C-28.30777344 42.38898438 -27.61554688 41.77796875 -26.90234375 41.1484375 C-14.68871416 29.73609972 -7.35885075 14.74725511 0 0 Z " fill="#046344" transform="translate(441,288)"/>
<path d="M0 0 C12.78992013 1.40495335 24.7165954 5.88815584 36 12 C33 14 33 14 31 14 C30.01 15.485 30.01 15.485 29 17 C25.09558437 15.17072719 21.48123888 12.87666676 17.8125 10.625 C13.50816838 8.00072599 9.27805399 5.53311707 4.625 3.5625 C1 2 1 2 0 0 Z " fill="#219777" transform="translate(103,289)"/>
<path d="M0 0 C0 0.66 0 1.32 0 2 C-14.56237666 5.99100698 -29.10699665 9.48462368 -44 12 C-45.13566406 12.19851562 -46.27132813 12.39703125 -47.44140625 12.6015625 C-52.12071016 13.12548017 -56.73378173 13.10652328 -61.4375 13.0625 C-62.35982422 13.05798828 -63.28214844 13.05347656 -64.23242188 13.04882812 C-66.48835048 13.03713938 -68.74413967 13.02075455 -71 13 C-71 12.67 -71 12.34 -71 12 C-66.66749763 11.49262223 -62.33388373 10.99542852 -58 10.5 C-56.16888672 10.28537109 -56.16888672 10.28537109 -54.30078125 10.06640625 C-48.1593321 9.36926878 -42.18121183 8.81456365 -36 9 C-36 8.34 -36 7.68 -36 7 C-35.20980469 6.91363281 -34.41960937 6.82726562 -33.60546875 6.73828125 C-25.2724533 5.70022561 -17.39167988 3.93194244 -9.3112793 1.67700195 C-8.14592651 1.35348755 -8.14592651 1.35348755 -6.95703125 1.0234375 C-5.92026245 0.72832275 -5.92026245 0.72832275 -4.86254883 0.42724609 C-3 0 -3 0 0 0 Z " fill="#03704C" transform="translate(479,128)"/>
<path d="M0 0 C0.495 0.99 0.495 0.99 1 2 C0.34 2 -0.32 2 -1 2 C-1.2475 2.58265625 -1.495 3.1653125 -1.75 3.765625 C-3.18525446 6.33114236 -4.77663013 7.83724798 -7 9.75 C-8.051875 10.67039062 -8.051875 10.67039062 -9.125 11.609375 C-11 13 -11 13 -13 13 C-13 13.66 -13 14.32 -13 15 C-14.6405786 16.19022369 -16.28555263 17.37680031 -17.98046875 18.48828125 C-20.57953697 20.43381201 -22.73396341 22.67612163 -25 25 C-26.32837891 26.31097656 -26.32837891 26.31097656 -27.68359375 27.6484375 C-32.68074497 32.59597162 -37.52956063 37.56297914 -42 43 C-42.495 41.515 -42.495 41.515 -43 40 C-35.91962487 32.21049639 -28.74933666 24.57271853 -21.0625 17.375 C-20.46107178 16.8082959 -19.85964355 16.2415918 -19.23999023 15.65771484 C-15.36495989 12.07442252 -11.31629718 9.03391903 -7 6 C-5.31471312 4.35216394 -3.64302953 2.68997323 -2 1 C-1.34 0.67 -0.68 0.34 0 0 Z " fill="#016F48" transform="translate(293,428)"/>
<path d="M0 0 C-3.75181037 4.96305209 -10.96572325 4.92351764 -16.7399292 5.7409668 C-22.45286868 6.39574319 -28.17931579 6.36562795 -33.92163086 6.28125 C-36.09310899 6.2495532 -38.26385799 6.24020178 -40.43554688 6.234375 C-46.71368169 6.19356131 -52.78528029 5.99579197 -59 5 C-59 4.34 -59 3.68 -59 3 C-57.23910034 3.02356567 -57.23910034 3.02356567 -55.44262695 3.04760742 C-51.02749677 3.10249578 -46.61239582 3.13656122 -42.19702148 3.16479492 C-40.29723007 3.17974885 -38.39747236 3.20011943 -36.49780273 3.22631836 C-26.53052737 3.36019538 -17.22739153 3.44090403 -7.58276367 0.6496582 C-4.95098154 -0.01232991 -2.70153612 -0.11647451 0 0 Z " fill="#026849" transform="translate(376,353)"/>
<path d="M0 0 C1.62772339 0.26043091 1.62772339 0.26043091 3.28833008 0.52612305 C10.91265084 1.85015084 10.91265084 1.85015084 13.1875 4.125 C7.86962237 4.25099118 3.0246583 4.04036326 -2.19433594 3.05786133 C-16.63749552 0.34632787 -31.18518331 0.83919572 -45.8125 1.125 C-34.45947838 -6.44368108 -12.59875008 -2.02132185 0 0 Z " fill="#026246" transform="translate(289.8125,349.875)"/>
<path d="M0 0 C0.33 0 0.66 0 1 0 C0.90150757 1.08897583 0.90150757 1.08897583 0.80102539 2.19995117 C-0.01625873 11.9000405 -0.31781825 21.58415329 -0.5625 31.3125 C-0.60582289 32.93946106 -0.64944084 34.56641429 -0.69335938 36.19335938 C-0.79896531 40.12882453 -0.90061064 44.06437315 -1 48 C-1.99 48.495 -1.99 48.495 -3 49 C-4.67851158 45.64297683 -4.19097765 41.87729159 -4.1875 38.1875 C-4.18669434 37.30690918 -4.18588867 36.42631836 -4.18505859 35.51904297 C-4.1250631 28.85718999 -3.73920483 22.25782438 -3.125 15.625 C-3.04660889 14.75254639 -2.96821777 13.88009277 -2.88745117 12.98120117 C-2.42146112 8.39769977 -1.67872188 4.33082031 0 0 Z " fill="#0A6E4F" transform="translate(184,195)"/>
<path d="M0 0 C0 0.33 0 0.66 0 1 C-6.435 1.495 -6.435 1.495 -13 2 C-13 2.33 -13 2.66 -13 3 C-18.4950719 3.80001782 -23.67685476 4.09220581 -29.21875 3.87890625 C-29.96209595 3.85529526 -30.70544189 3.83168427 -31.47131348 3.80735779 C-33.8144474 3.73160115 -36.15717434 3.64720661 -38.5 3.5625 C-40.10154347 3.50919083 -41.70310601 3.45645127 -43.3046875 3.40429688 C-47.20337615 3.27610747 -51.10172474 3.14017771 -55 3 C-55 2.67 -55 2.34 -55 2 C-49.06 1.67 -43.12 1.34 -37 1 C-41.29 0.67 -45.58 0.34 -50 0 C-50 -0.33 -50 -0.66 -50 -1 C-33.3325382 -2.88304149 -16.66253866 -1.20439654 0 0 Z " fill="#039665" transform="translate(372,273)"/>
<path d="M0 0 C0 0.66 0 1.32 0 2 C-0.33 2.33 -0.66 2.66 -1 3 C-0.00419922 2.75443359 -0.00419922 2.75443359 1.01171875 2.50390625 C4.62883337 1.89396143 8.15860708 1.89204487 11.8125 1.9375 C12.50537109 1.94201172 13.19824219 1.94652344 13.91210938 1.95117188 C15.60811068 1.96286844 17.30406703 1.98080076 19 2 C19 2.33 19 2.66 19 3 C18.11441406 3.09796875 17.22882813 3.1959375 16.31640625 3.296875 C7.60039544 4.34896371 -0.80050868 5.9862664 -9.3203125 8.09765625 C-12.20736589 8.80562794 -15.08006461 9.44896161 -18 10 C-18 9.34 -18 8.68 -18 8 C-18.66 7.67 -19.32 7.34 -20 7 C-6.48091603 0 -6.48091603 0 0 0 Z " fill="#026E4D" transform="translate(300,150)"/>
<path d="M0 0 C0.515625 0.2475 1.03125 0.495 1.5625 0.75 C0.61890625 1.29527344 -0.3246875 1.84054687 -1.296875 2.40234375 C-16.37523284 11.21680666 -30.23114212 21.20147729 -41.4375 34.75 C-41.7675 34.09 -42.0975 33.43 -42.4375 32.75 C-40.14554537 30.04534615 -37.80344731 27.39013186 -35.4375 24.75 C-34.82003906 24.05261719 -34.20257813 23.35523438 -33.56640625 22.63671875 C-26.51465432 15.11759924 -18.03253703 9.36662085 -9.4375 3.75 C-8.7971582 3.32799316 -8.15681641 2.90598633 -7.49707031 2.47119141 C-3.02197756 -0.30994642 -3.02197756 -0.30994642 0 0 Z " fill="#036C4D" transform="translate(252.4375,291.25)"/>
<path d="M0 0 C0.66 0 1.32 0 2 0 C1.81824219 0.52207031 1.63648438 1.04414063 1.44921875 1.58203125 C-4.23967584 18.24028155 -6.24566307 34.49144282 -7 52 C-7.33 52 -7.66 52 -8 52 C-9.13803738 41.39893438 -9.16943037 31.47762577 -7.375 20.9375 C-7.22256836 19.99962646 -7.07013672 19.06175293 -6.91308594 18.09545898 C-5.66889944 11.43363117 -3.30618841 5.90048366 0 0 Z " fill="#04704E" transform="translate(251,196)"/>
<path d="M0 0 C2.12526037 3.18789056 2.23682404 3.84538171 2.13525391 7.47143555 C2.11508209 8.37214279 2.09491028 9.27285004 2.0741272 10.20085144 C2.04193085 11.16968765 2.0097345 12.13852386 1.9765625 13.13671875 C1.95153656 14.13129593 1.92651062 15.12587311 1.90072632 16.15058899 C1.81849847 19.32990458 1.7219191 22.5086016 1.625 25.6875 C1.56676333 27.84177154 1.50945999 29.99606852 1.453125 32.15039062 C1.31291565 37.43393686 1.16091863 42.71704615 1 48 C-1 46 -1 46 -1.24723816 44.05784607 C-1.24581314 43.26588333 -1.24438812 42.47392059 -1.24291992 41.65795898 C-1.24599655 40.7604039 -1.24907318 39.86284882 -1.25224304 38.93809509 C-1.24505753 37.96723465 -1.23787201 36.99637421 -1.23046875 35.99609375 C-1.23001053 35.0024733 -1.22955231 34.00885284 -1.2290802 32.98512268 C-1.22605609 30.88272916 -1.2181651 28.78033791 -1.20581055 26.67797852 C-1.18755565 23.44734831 -1.1853008 20.21700451 -1.18554688 16.98632812 C-1.1806318 14.94791417 -1.17480353 12.90950217 -1.16796875 10.87109375 C-1.16685593 9.89820908 -1.1657431 8.9253244 -1.16459656 7.92295837 C-1.15821671 7.02855545 -1.15183685 6.13415253 -1.14526367 5.21264648 C-1.14145187 4.42147934 -1.13764008 3.63031219 -1.13371277 2.81517029 C-1 1 -1 1 0 0 Z " fill="#045F40" transform="translate(242,353)"/>
<path d="M0 0 C0.99 0.33 1.98 0.66 3 1 C2.57589844 1.38929688 2.15179688 1.77859375 1.71484375 2.1796875 C-8.19598549 11.63309385 -18.97595846 26.40678356 -22 40 C-22.66 40 -23.32 40 -24 40 C-23.45272057 34.61982219 -21.58439382 30.62208141 -19.0625 25.9375 C-18.66716064 25.19669189 -18.27182129 24.45588379 -17.86450195 23.69262695 C-13.06089229 14.94759398 -7.20265229 6.93893962 0 0 Z " fill="#036547" transform="translate(253,168)"/>
<path d="M0 0 C0.99 0.33 1.98 0.66 3 1 C2.443125 1.680625 1.88625 2.36125 1.3125 3.0625 C-8.47115289 15.49038341 -14.48584975 28.89495879 -19 44 C-19.33 44 -19.66 44 -20 44 C-21.60854031 30.16655334 -10.42542104 13.6947284 -2.4375 3 C-1.633125 2.01 -0.82875 1.02 0 0 Z " fill="#056E4A" transform="translate(206,147)"/>
<path d="M0 0 C0 0.66 0 1.32 0 2 C-2.05385099 3.5525412 -4.1161353 5.00245937 -6.25 6.4375 C-15.93253175 13.14925496 -24.61874995 20.77343743 -32 30 C-32.99 29.67 -33.98 29.34 -35 29 C-10.0106383 0 -10.0106383 0 0 0 Z " fill="#036646" transform="translate(276,436)"/>
<path d="M0 0 C0.33 0 0.66 0 1 0 C1.02500545 4.90722293 1.04300225 9.81440752 1.05493164 14.72167969 C1.05991292 16.38574877 1.06670037 18.04981359 1.07543945 19.71386719 C1.12393667 29.19649973 1.0400008 38.55909079 0 48 C-1.79276788 44.91450305 -2.24783458 42.69415101 -2.23046875 39.140625 C-2.22926025 38.19687012 -2.22805176 37.25311523 -2.22680664 36.28076172 C-2.21383545 35.28061035 -2.20086426 34.28045898 -2.1875 33.25 C-2.18032959 32.22535645 -2.17315918 31.20071289 -2.16577148 30.14501953 C-1.93865257 8.63433498 -1.93865257 8.63433498 0 0 Z " fill="#026A47" transform="translate(214,204)"/>
<path d="M0 0 C1.43880051 0.00503077 2.87760274 0.00959086 4.31640625 0.01367188 C7.79430751 0.02453936 11.27214217 0.04171472 14.75 0.0625 C14.75 0.3925 14.75 0.7225 14.75 1.0625 C9.67334275 1.85323588 4.63195782 2.34724234 -0.5 2.625 C-1.26489746 2.6674585 -2.02979492 2.70991699 -2.81787109 2.75366211 C-11.62698974 3.19742168 -20.43267347 3.15047776 -29.25 3.0625 C-28.92 2.4025 -28.59 1.7425 -28.25 1.0625 C-19.0796556 -0.6931027 -9.3143641 -0.05738913 0 0 Z " fill="#01734D" transform="translate(409.25,150.9375)"/>
<path d="M0 0 C5.61 0.33 11.22 0.66 17 1 C17.33 1.66 17.66 2.32 18 3 C7.84855555 5.37097229 -1.62250983 7.07549803 -12 5 C-8.36804504 2.57869669 -6.61650652 2.78977215 -2.3125 2.875 C-1.13300781 2.89304687 0.04648438 2.91109375 1.26171875 2.9296875 C2.61716797 2.96449219 2.61716797 2.96449219 4 3 C4 2.34 4 1.68 4 1 C2.68 0.67 1.36 0.34 0 0 Z " fill="#A4CDC0" transform="translate(145,352)"/>
<path d="M0 0 C0.33 0 0.66 0 1 0 C1.44300015 13.65917118 -0.56920713 27.05377707 -5 40 C-5.99 40.495 -5.99 40.495 -7 41 C-6.26744423 33.49130333 -4.94566439 26.20776403 -3.4609375 18.81640625 C-2.61895334 14.53736736 -1.88194033 10.3089876 -1.4375 5.96875 C-1 2 -1 2 0 0 Z " fill="#055D44" transform="translate(181,514)"/>
<path d="M0 0 C0.66 0.33 1.32 0.66 2 1 C0.77662924 8.15720058 -1.14115754 14.80957861 -3.625 21.625 C-3.94984375 22.53378906 -4.2746875 23.44257813 -4.609375 24.37890625 C-5.40008436 26.58824123 -6.19699654 28.79511041 -7 31 C-7.66 31 -8.32 31 -9 31 C-6.74868611 22.64284994 -4.39214186 14.31785366 -2 6 C-4.31 6.33 -6.62 6.66 -9 7 C-9 6.34 -9 5.68 -9 5 C-3.375 2 -3.375 2 0 2 C0 1.34 0 0.68 0 0 Z " fill="#056C4B" transform="translate(451,256)"/>
<path d="M0 0 C0.66 0 1.32 0 2 0 C11.39508929 27.14564732 11.39508929 27.14564732 12 40 C9.80302629 36.70453943 9.14475812 34.14560592 8.1875 30.3125 C6.56601656 23.94960775 4.70875244 17.69551899 2.6628418 11.45629883 C1.43705239 7.65571602 0.55452419 3.95479336 0 0 Z " fill="#065B42" transform="translate(165,349)"/>
<path d="M0 0 C0.33 0.99 0.66 1.98 1 3 C0.52691406 3.45246094 0.05382812 3.90492188 -0.43359375 4.37109375 C-5.26272113 9.35083719 -8.67024007 14.58735541 -11.875 20.6875 C-12.2558374 21.41187256 -12.6366748 22.13624512 -13.02905273 22.88256836 C-15.05245558 26.8417553 -16.72092378 30.72519265 -18 35 C-18.66 35 -19.32 35 -20 35 C-18.45384736 22.20558687 -9.24293778 8.74569113 0 0 Z " fill="#036B4A" transform="translate(238,155)"/>
<path d="M0 0 C1.34658493 4.0397548 0.18166927 5.25781471 -1.625 9.0625 C-4.21713771 14.75408184 -6.16588311 20.46798018 -7.8125 26.5 C-8.01891113 27.25289307 -8.22532227 28.00578613 -8.43798828 28.78149414 C-9.51510158 32.83265202 -10.3888854 36.84704918 -11 41 C-11.33 41 -11.66 41 -12 41 C-11.10414527 25.74689449 -8.08119103 13.16934835 0 0 Z " fill="#036546" transform="translate(230,433)"/>
<path d="M0 0 C0.33 0 0.66 0 1 0 C1.04633306 7.24965244 1.08187408 14.49927297 1.10362434 21.74904346 C1.1140632 25.11538229 1.12822409 28.48161985 1.15087891 31.84790039 C1.17507811 35.71763815 1.18647192 39.58723176 1.1953125 43.45703125 C1.20563507 44.66647903 1.21595764 45.87592682 1.22659302 47.12202454 C1.22674408 48.24296005 1.22689514 49.36389557 1.22705078 50.51879883 C1.231492 51.50697098 1.23593323 52.49514313 1.24050903 53.51325989 C1 56 1 56 -1 59 C-1.19934422 57.64752616 -1.38374778 56.29284913 -1.5625 54.9375 C-1.66691406 54.18339844 -1.77132812 53.42929687 -1.87890625 52.65234375 C-2 50 -2 50 -1.52734375 46.96484375 C-0.90202619 42.26338208 -0.77112683 37.64725475 -0.68359375 32.91015625 C-0.66281265 31.96563095 -0.64203156 31.02110565 -0.62062073 30.04795837 C-0.55562646 27.05287427 -0.496475 24.05770807 -0.4375 21.0625 C-0.39426703 19.02277822 -0.35065127 16.98306452 -0.30664062 14.94335938 C-0.19999695 9.96232212 -0.0985906 4.9812029 0 0 Z " fill="#053C2D" transform="translate(183,452)"/>
<path d="M0 0 C1.72985242 0.11512153 3.45888751 0.24255677 5.1875 0.375 C6.15042969 0.44460937 7.11335938 0.51421875 8.10546875 0.5859375 C11.06310529 1.00902721 13.23584451 1.88798343 16 3 C19.08479166 3.79829724 22.19641478 4.46095658 25.3125 5.125 C26.14845703 5.30675781 26.98441406 5.48851562 27.84570312 5.67578125 C29.89629972 6.12105365 31.94803962 6.5610552 34 7 C34 7.33 34 7.66 34 8 C26.21482149 8.39627632 19.45855166 6.92691687 11.9375 5 C10.20983398 4.57074219 10.20983398 4.57074219 8.44726562 4.1328125 C5.62903428 3.43117814 2.81356687 2.72006884 0 2 C0 1.34 0 0.68 0 0 Z " fill="#036947" transform="translate(374,190)"/>
<path d="M0 0 C-0.54301758 0.26103516 -1.08603516 0.52207031 -1.64550781 0.79101562 C-11.46669962 5.5374401 -20.99660048 10.232691 -29.8828125 16.6015625 C-32 18 -32 18 -34 18 C-34 17.34 -34 16.68 -34 16 C-31.65627802 14.33504426 -29.32460749 12.80796475 -26.875 11.3125 C-26.15666992 10.87059326 -25.43833984 10.42868652 -24.69824219 9.97338867 C-5.45917518 -1.70324507 -5.45917518 -1.70324507 0 0 Z " fill="#047750" transform="translate(269,105)"/>
<path d="M0 0 C0.66 0 1.32 0 2 0 C2.38816523 2.66863594 2.71506222 5.31980397 3 8 C3.103125 8.75539063 3.20625 9.51078125 3.3125 10.2890625 C3.6022172 13.80188354 3.70738099 16.05366457 1.54296875 18.94921875 C0.31223157 20.14368157 -0.95282132 21.30382631 -2.25 22.42578125 C-4.37998663 24.34181833 -5.58023566 26.53409351 -7 29 C-7.66 29 -8.32 29 -9 29 C-7.51131293 24.39860359 -5.25370145 21.49772906 -2 18 C-1.34 18 -0.68 18 0 18 C0 12.06 0 6.12 0 0 Z " fill="#046847" transform="translate(241,403)"/>
<path d="M0 0 C0.66 0 1.32 0 2 0 C0.16003607 3.91734256 -2.12524881 7.5603166 -4.375 11.25 C-10.2675284 20.64657803 -10.2675284 20.64657803 -14 31 C-14.66 31 -15.32 31 -16 31 C-15.46879343 25.47893495 -13.4213697 21.40925101 -10.8125 16.625 C-10.40829834 15.87420166 -10.00409668 15.12340332 -9.58764648 14.34985352 C-6.77428341 9.20907698 -3.86562094 4.43132157 0 0 Z " fill="#046246" transform="translate(207,328)"/>
<path d="M0 0 C1.2375 0.06058594 2.475 0.12117187 3.75 0.18359375 C17.4975894 0.85050951 31.24760218 1.44157257 45 2 C45 2.33 45 2.66 45 3 C39.71640371 3.04965427 34.43294504 3.08583957 29.14916992 3.10986328 C27.35389844 3.1198846 25.55864312 3.13350533 23.76342773 3.15087891 C21.17427565 3.17529809 18.58534049 3.18652198 15.99609375 3.1953125 C14.80348183 3.21079636 14.80348183 3.21079636 13.58677673 3.22659302 C8.67537248 3.2275689 4.6605353 2.56706771 0 1 C0 0.67 0 0.34 0 0 Z " fill="#046043" transform="translate(409,198)"/>
<path d="M0 0 C6.76197749 -0.43625661 12.74356969 0.40107385 19.3125 1.875 C20.47724854 2.13555176 20.47724854 2.13555176 21.66552734 2.40136719 C25.5957269 3.32002693 29.2954984 4.35848432 33 6 C33 6.33 33 6.66 33 7 C25.69515627 6.66491543 18.60035827 5.46231546 11.4375 4.0625 C10.54450195 3.89266602 9.65150391 3.72283203 8.73144531 3.54785156 C7.47025879 3.29406738 7.47025879 3.29406738 6.18359375 3.03515625 C5.42618896 2.8844165 4.66878418 2.73367676 3.88842773 2.57836914 C2 2 2 2 0 0 Z " fill="#046849" transform="translate(311,175)"/>
<path d="M0 0 C0.95648438 0.00902344 1.91296875 0.01804687 2.8984375 0.02734375 C5.22423525 0.05060173 7.54947294 0.08327787 9.875 0.125 C9.875 0.785 9.875 1.445 9.875 2.125 C-0.355 2.785 -10.585 3.445 -21.125 4.125 C-21.125 3.465 -21.125 2.805 -21.125 2.125 C-13.9918439 0.40520944 -7.32266008 -0.13370025 0 0 Z " fill="#046548" transform="translate(304.125,403.875)"/>
<path d="M0 0 C-1.34005776 4.02017329 -3.91299404 5.05241726 -7.375 7.125 C-14.06305693 11.2573808 -20.04156281 15.8562879 -26 21 C-26.66 20.67 -27.32 20.34 -28 20 C-22.05816814 13.50543959 -15.29583181 8.84300001 -8 4 C-6.91847656 3.25105469 -5.83695313 2.50210937 -4.72265625 1.73046875 C-2 0 -2 0 0 0 Z " fill="#036A4A" transform="translate(256,315)"/>
<path d="M0 0 C0 0.33 0 0.66 0 1 C-10.0613942 2.73999935 -19.66187193 3.25529506 -29.875 3.125 C-31.25650378 3.11493026 -32.63801484 3.1058116 -34.01953125 3.09765625 C-37.34654732 3.0743904 -40.67317285 3.04170564 -44 3 C-44 2.67 -44 2.34 -44 2 C-31.625 1.505 -31.625 1.505 -19 1 C-19 0.67 -19 0.34 -19 0 C-12.42150508 -0.95494281 -6.58183362 -0.8931507 0 0 Z " fill="#047652" transform="translate(470,199)"/>
<path d="M0 0 C7.30645606 1.05084393 14.06392339 2.45677191 21 5 C19.68 6.32 18.36 7.64 17 9 C13.3819251 7.57389748 9.80544535 6.07592713 6.25 4.5 C5.28578125 4.0771875 4.3215625 3.654375 3.328125 3.21875 C1 2 1 2 0 0 Z " fill="#44A288" transform="translate(103,289)"/>
<path d="M0 0 C1.10859375 0.00322266 2.2171875 0.00644531 3.359375 0.00976562 C4.50148438 0.01814453 5.64359375 0.02652344 6.8203125 0.03515625 C8.56828125 0.04192383 8.56828125 0.04192383 10.3515625 0.04882812 C13.21619895 0.06056844 16.08072883 0.07699055 18.9453125 0.09765625 C18.9453125 0.42765625 18.9453125 0.75765625 18.9453125 1.09765625 C14.83050045 1.8553641 10.85191016 2.2692098 6.671875 2.4140625 C5.51816406 2.45595703 4.36445313 2.49785156 3.17578125 2.54101562 C1.39107422 2.59999023 1.39107422 2.59999023 -0.4296875 2.66015625 C-2.24919922 2.72493164 -2.24919922 2.72493164 -4.10546875 2.79101562 C-7.08843782 2.89671138 -10.07148492 2.99880946 -13.0546875 3.09765625 C-12.7246875 2.43765625 -12.3946875 1.77765625 -12.0546875 1.09765625 C-8.01498695 0.16618082 -4.13327163 -0.02130552 0 0 Z " fill="#026849" transform="translate(307.0546875,311.90234375)"/>
<path d="M0 0 C0.99 0.33 1.98 0.66 3 1 C2.20335937 1.78503906 1.40671875 2.57007813 0.5859375 3.37890625 C-4.83739894 8.74756507 -10.1619743 14.08685748 -15 20 C-15.33 19.01 -15.66 18.02 -16 17 C-13.70891588 14.54112319 -11.41703299 12.08299232 -9.125 9.625 C-8.47402344 8.92632812 -7.82304687 8.22765625 -7.15234375 7.5078125 C-6.52714844 6.8375 -5.90195312 6.1671875 -5.2578125 5.4765625 C-4.6817627 4.85861816 -4.10571289 4.24067383 -3.51220703 3.60400391 C-2.36151331 2.38345858 -1.18613383 1.18613383 0 0 Z " fill="#036245" transform="translate(266,451)"/>
<path d="M0 0 C0.72960937 0.08314453 1.45921875 0.16628906 2.2109375 0.25195312 C6.85736666 0.82031098 11.15722283 1.79058286 15.625 3.1875 C15.625 3.5175 15.625 3.8475 15.625 4.1875 C8.92579127 4.35106156 2.6688831 3.76352131 -3.9375 2.6875 C-5.30745117 2.47287109 -5.30745117 2.47287109 -6.70507812 2.25390625 C-8.92942736 1.90453202 -11.1525921 1.54898178 -13.375 1.1875 C-13.375 0.8575 -13.375 0.5275 -13.375 0.1875 C-8.81070753 -1.08436806 -4.6240896 -0.59417935 0 0 Z " fill="#037A51" transform="translate(287.375,349.8125)"/>
<path d="M0 0 C-4.50957205 3.73964512 -9.20956638 6.11898982 -14.625 8.3125 C-15.27025635 8.57885254 -15.9155127 8.84520508 -16.58032227 9.11962891 C-20.17635921 10.52989394 -23.13380164 11.31847994 -27 11 C-22.54142478 7.42748141 -17.59687998 5.47491392 -12.375 3.25 C-11.40820312 2.82589844 -10.44140625 2.40179688 -9.4453125 1.96484375 C-8.52234375 1.56910156 -7.599375 1.17335938 -6.6484375 0.765625 C-5.80458496 0.40243164 -4.96073242 0.03923828 -4.09130859 -0.33496094 C-2 -1 -2 -1 0 0 Z " fill="#027451" transform="translate(510,116)"/>
<path d="M0 0 C0 0.66 0 1.32 0 2 C-3.9108777 3.37130616 -7.82948238 4.71902743 -11.75 6.0625 C-13.41675781 6.64741211 -13.41675781 6.64741211 -15.1171875 7.24414062 C-16.72207031 7.79038086 -16.72207031 7.79038086 -18.359375 8.34765625 C-19.34389648 8.68804932 -20.32841797 9.02844238 -21.34277344 9.37915039 C-24.05520049 10.01289736 -25.4193025 9.94500645 -28 9 C-25.12595407 7.87255207 -22.25059574 6.74848857 -19.375 5.625 C-18.56675781 5.30789062 -17.75851562 4.99078125 -16.92578125 4.6640625 C-4.97412109 0 -4.97412109 0 0 0 Z " fill="#047651" transform="translate(317,113)"/>
<path d="M0 0 C1.51303711 0.00676758 1.51303711 0.00676758 3.05664062 0.01367188 C5.51699147 0.02533231 7.97721239 0.04169622 10.4375 0.0625 C10.4375 0.3925 10.4375 0.7225 10.4375 1.0625 C-12.15739033 3.45026806 -12.15739033 3.45026806 -22.5625 3.0625 C-17.72157871 -1.77842129 -6.51240215 -0.05602993 0 0 Z " fill="#047150" transform="translate(400.5625,112.9375)"/>
<path d="M0 0 C-2.69527268 1.44498979 -5.17079975 2.40241924 -8.15234375 3.0703125 C-9.31733398 3.33134766 -9.31733398 3.33134766 -10.50585938 3.59765625 C-11.70952148 3.85869141 -11.70952148 3.85869141 -12.9375 4.125 C-13.73607422 4.30675781 -14.53464844 4.48851562 -15.35742188 4.67578125 C-19.30010728 5.54467464 -22.93527308 6.24634709 -27 6 C-24.1275048 3.1275048 -20.7175227 2.75721184 -16.875 1.875 C-16.14023437 1.69324219 -15.40546875 1.51148438 -14.6484375 1.32421875 C-9.65105572 0.15405717 -5.13014806 -0.17449483 0 0 Z " fill="#036E4C" transform="translate(328,144)"/>
<path d="M0 0 C0.66 0.33 1.32 0.66 2 1 C1.07058594 1.72445312 0.14117187 2.44890625 -0.81640625 3.1953125 C-6.98350929 8.01424651 -13.12508882 12.82448301 -19 18 C-19 15 -19 15 -17.12890625 12.94921875 C-11.67950681 8.14677998 -6.18856569 3.81179771 0 0 Z " fill="#046D4B" transform="translate(260,137)"/>
<path d="M0 0 C0.33 0.99 0.66 1.98 1 3 C-0.1875 4.65625 -0.1875 4.65625 -2 6.5 C-5.83119614 10.6152728 -8.65521535 15.050889 -11.51953125 19.875 C-12.00808594 20.57625 -12.49664062 21.2775 -13 22 C-13.66 22 -14.32 22 -15 22 C-12.0534941 13.64401147 -5.74162459 6.63875343 0 0 Z " fill="#066648" transform="translate(206,303)"/>
<path d="M0 0 C0.8971875 0.309375 0.8971875 0.309375 1.8125 0.625 C1.33828613 0.91745605 0.86407227 1.20991211 0.37548828 1.51123047 C-1.7722717 2.83798933 -3.91740324 4.16893996 -6.0625 5.5 C-7.18205078 6.19029297 -7.18205078 6.19029297 -8.32421875 6.89453125 C-9.39736328 7.56162109 -9.39736328 7.56162109 -10.4921875 8.2421875 C-11.15202637 8.65065918 -11.81186523 9.05913086 -12.49169922 9.47998047 C-14.33704179 10.64765066 -14.33704179 10.64765066 -16.1875 12.625 C-17.1775 12.625 -18.1675 12.625 -19.1875 12.625 C-19.1875 11.965 -19.1875 11.305 -19.1875 10.625 C-16.94420604 9.03661749 -14.71047625 7.5654021 -12.375 6.125 C-11.09762919 5.32295976 -9.82028455 4.52087785 -8.54296875 3.71875 C-7.43566406 3.0278125 -6.32835937 2.336875 -5.1875 1.625 C-2.1875 -0.375 -2.1875 -0.375 0 0 Z " fill="#026749" transform="translate(247.1875,330.375)"/>
<path d="M0 0 C-5.50240266 3.66826844 -12.02887125 3.1387234 -18.4375 3.0625 C-19.16904297 3.05798828 -19.90058594 3.05347656 -20.65429688 3.04882812 C-22.43623419 3.03718148 -24.21812863 3.01925191 -26 3 C-18.48467413 -1.28948994 -8.39688 -0.14617393 0 0 Z " fill="#026A4A" transform="translate(353,309)"/>
<path d="M0 0 C0 0.33 0 0.66 0 1 C-2.83299398 1.48124577 -5.66636657 1.96004609 -8.5 2.4375 C-9.29148437 2.57220703 -10.08296875 2.70691406 -10.8984375 2.84570312 C-15.92202284 3.68983017 -20.94104741 4.40244023 -26 5 C-26 4.34 -26 3.68 -26 3 C-17.19353881 0.29031963 -9.19012194 -0.36706108 0 0 Z " fill="#04734D" transform="translate(309,275)"/>
<path d="M0 0 C3.96 0.33 7.92 0.66 12 1 C4.32840818 4.83579591 -3.57906458 4.11396755 -12 4 C-10 2 -10 2 -7.6171875 1.8046875 C-6.71226562 1.82789063 -5.80734375 1.85109375 -4.875 1.875 C-3.50988281 1.90207031 -3.50988281 1.90207031 -2.1171875 1.9296875 C-1.41851562 1.95289063 -0.71984375 1.97609375 0 2 C0 1.34 0 0.68 0 0 Z " fill="#03784C" transform="translate(400,271)"/>
<path d="M0 0 C0.33 0.66 0.66 1.32 1 2 C1.66 2 2.32 2 3 2 C4.19984797 4.26504965 5.38494769 6.53589888 6.5625 8.8125 C6.90474609 9.45509766 7.24699219 10.09769531 7.59960938 10.75976562 C8.4765023 12.46926395 9.24515617 14.23321294 10 16 C9.67 16.99 9.34 17.98 9 19 C6.46446243 15.84009582 4.62801666 12.55508505 2.8125 8.9375 C2.28269531 7.89464844 1.75289062 6.85179687 1.20703125 5.77734375 C0 3 0 3 0 0 Z " fill="#AFD1C6" transform="translate(54,270)"/>
<path d="M0 0 C0.99 0.33 1.98 0.66 3 1 C2.43152344 1.43570313 1.86304688 1.87140625 1.27734375 2.3203125 C-2.54840137 5.27105415 -6.31677018 8.23689705 -9.9375 11.4375 C-13 14 -13 14 -15 14 C-13.44572016 9.66223861 -10.10268248 7.37649106 -6.5625 4.6875 C-5.68368164 3.98657227 -5.68368164 3.98657227 -4.78710938 3.27148438 C-3.06640625 1.94921875 -3.06640625 1.94921875 0 0 Z " fill="#036A49" transform="translate(271,153)"/>
<path d="M0 0 C3.96 0 7.92 0 12 0 C12.33 0.66 12.66 1.32 13 2 C3.58997722 4.29612756 3.58997722 4.29612756 -1 4 C-0.67 2.68 -0.34 1.36 0 0 Z " fill="#AED3C5" transform="translate(150,353)"/>
<path d="M0 0 C4.23912402 0.48717206 5.91307946 1.49918754 8.5625 4.8125 C10.47869872 7.1647702 12.23678177 9.2131036 14.5 11.25 C14.995 11.8275 15.49 12.405 16 13 C15.59375 15.109375 15.59375 15.109375 15 17 C14.41992188 16.26394531 13.83984375 15.52789062 13.2421875 14.76953125 C9.12628899 9.62805407 5.22058504 5.01583464 0 1 C0 0.67 0 0.34 0 0 Z " fill="#148161" transform="translate(135,309)"/>
<path d="M0 0 C7.49440349 0.4996269 13.95650263 2.43764478 21 5 C21 5.33 21 5.66 21 6 C14.12020672 5.57550212 7.40044223 4.70240894 1 2 C0.67 1.34 0.34 0.68 0 0 Z " fill="#026647" transform="translate(345,182)"/>
<path d="M0 0 C0.33 0 0.66 0 1 0 C1.33 3.3 1.66 6.6 2 10 C2.66 10 3.32 10 4 10 C3.67 12.64 3.34 15.28 3 18 C2.01 17.67 1.02 17.34 0 17 C-1.14819277 11.1314592 -0.77313045 5.9114744 0 0 Z " fill="#076D50" transform="translate(186,317)"/>
<path d="M0 0 C0.66 0 1.32 0 2 0 C0.85210257 7.09883934 -1.11450374 13.41658619 -4 20 C-4.33 20 -4.66 20 -5 20 C-4.52432875 12.74601342 -2.70533406 6.73187777 0 0 Z " fill="#036948" transform="translate(225,214)"/>
<path d="M0 0 C1.48785086 4.56738556 -0.15317905 7.8472315 -1.875 12.125 C-2.15730469 12.85332031 -2.43960938 13.58164063 -2.73046875 14.33203125 C-3.74365906 16.92983199 -4.75228769 19.50457537 -6 22 C-6.66 22 -7.32 22 -8 22 C-5.60309494 14.55697903 -2.84737559 7.28162848 0 0 Z " fill="#046C4B" transform="translate(582,85)"/>
<path d="M0 0 C0.33 0.66 0.66 1.32 1 2 C-1.57029954 3.70802567 -4.15802725 5.38758335 -6.75 7.0625 C-7.47960937 7.54783203 -8.20921875 8.03316406 -8.9609375 8.53320312 C-9.66992188 8.98759766 -10.37890625 9.44199219 -11.109375 9.91015625 C-11.75874023 10.33433838 -12.40810547 10.75852051 -13.07714844 11.19555664 C-15 12 -15 12 -19 11 C-12.73 7.37 -6.46 3.74 0 0 Z " fill="#03694A" transform="translate(296,423)"/>
<path d="M0 0 C0 0.66 0 1.32 0 2 C-2.57861025 3.03444249 -5.16174635 4.05272284 -7.75 5.0625 C-8.47960937 5.35705078 -9.20921875 5.65160156 -9.9609375 5.95507812 C-10.66992188 6.22900391 -11.37890625 6.50292969 -12.109375 6.78515625 C-12.75874023 7.04176025 -13.40810547 7.29836426 -14.07714844 7.56274414 C-16.36632786 8.08330284 -17.79256664 7.72364304 -20 7 C-4.64974619 0 -4.64974619 0 0 0 Z " fill="#04694A" transform="translate(277,307)"/>
<path d="M0 0 C0 0.66 0 1.32 0 2 C-2.43123269 3.36663387 -4.86886163 4.7183867 -7.3125 6.0625 C-8.00279297 6.45244141 -8.69308594 6.84238281 -9.40429688 7.24414062 C-11.22925688 8.24037483 -13.11273877 9.12752842 -15 10 C-15.99 9.67 -16.98 9.34 -18 9 C-15.37785672 7.49480613 -12.75255792 5.99568681 -10.125 4.5 C-9.37863281 4.07074219 -8.63226563 3.64148438 -7.86328125 3.19921875 C-7.14785156 2.79316406 -6.43242187 2.38710937 -5.6953125 1.96875 C-5.03547363 1.59169922 -4.37563477 1.21464844 -3.69580078 0.82617188 C-2 0 -2 0 0 0 Z " fill="#026E4C" transform="translate(281,126)"/>
<path d="M0 0 C-3.23831126 1.79041248 -6.41415108 2.73750239 -10 3.625 C-11.546875 4.01558594 -11.546875 4.01558594 -13.125 4.4140625 C-16 5 -16 5 -20 5 C-20 4.34 -20 3.68 -20 3 C-13.19925959 1.09579269 -7.08076251 -0.40850553 0 0 Z " fill="#047855" transform="translate(315,90)"/>
<path d="M0 0 C4.02771628 1.5026138 5.48215259 3.8352731 7.6875 7.4375 C8.28949219 8.40558594 8.89148438 9.37367188 9.51171875 10.37109375 C11 13 11 13 12 16 C11.34 16.33 10.68 16.66 10 17 C8.51993873 14.54220129 7.04091426 12.08378912 5.5625 9.625 C5.14162109 8.92632812 4.72074219 8.22765625 4.28710938 7.5078125 C3.88427734 6.8375 3.48144531 6.1671875 3.06640625 5.4765625 C2.69459229 4.85861816 2.32277832 4.24067383 1.93969727 3.60400391 C1.250073 2.42685882 0.6101233 1.22024659 0 0 Z " fill="#107455" transform="translate(151,326)"/>
<path d="M0 0 C0.33 0 0.66 0 1 0 C1.99 4.95 2.98 9.9 4 15 C3.34 15 2.68 15 2 15 C1.566875 14.113125 1.13375 13.22625 0.6875 12.3125 C-0.76784817 9.45570545 -2.31627474 6.72603137 -4 4 C-2.68 4 -1.36 4 0 4 C0 2.68 0 1.36 0 0 Z " fill="#77BCA0" transform="translate(179,320)"/>
<path d="M0 0 C0 0.66 0 1.32 0 2 C-1.9151579 2.81604999 -3.83218834 3.62770632 -5.75 4.4375 C-6.81734375 4.88996094 -7.8846875 5.34242188 -8.984375 5.80859375 C-11.3413841 6.73979553 -13.52992835 7.4784072 -16 8 C-16 7.34 -16 6.68 -16 6 C-14.08850332 4.9901527 -12.17058431 3.99245505 -10.25 3 C-9.18265625 2.443125 -8.1153125 1.88625 -7.015625 1.3125 C-4 0 -4 0 0 0 Z " fill="#017652" transform="translate(306,135)"/>
<path d="M0 0 C0 0.66 0 1.32 0 2 C-1.97440927 3.4631783 -3.93238871 4.80713064 -6 6.125 C-6.57234375 6.49753906 -7.1446875 6.87007813 -7.734375 7.25390625 C-9.15221782 8.17550408 -10.57560725 9.08855821 -12 10 C-12.66 9.67 -13.32 9.34 -14 9 C-10.73787201 5.33010602 -5.2007339 0 0 0 Z " fill="#017953" transform="translate(510,118)"/>
<path d="M0 0 C0.66 0.33 1.32 0.66 2 1 C-1.96 5.29 -5.92 9.58 -10 14 C-10.33 13.34 -10.66 12.68 -11 12 C-3.70159453 3.55353075 -3.70159453 3.55353075 0 0 Z " fill="#056044" transform="translate(221,312)"/>
<path d="M0 0 C-1 2 -1 2 -2.85546875 2.8515625 C-7.37848126 4.3516571 -11.16744753 5.37173481 -16 5 C-15 3 -15 3 -12.890625 2.1484375 C-12.01921875 1.89320313 -11.1478125 1.63796875 -10.25 1.375 C-8.95835937 0.98441406 -8.95835937 0.98441406 -7.640625 0.5859375 C-5.00270994 0.00060132 -2.69198424 -0.10651736 0 0 Z " fill="#027350" transform="translate(466,141)"/>
<path d="M0 0 C8.04212755 -0.16677223 15.98603754 0.3533402 24 1 C24 1.33 24 1.66 24 2 C21.5211787 2.19389096 19.04219069 2.38040123 16.5625 2.5625 C15.85544922 2.61857422 15.14839844 2.67464844 14.41992188 2.73242188 C12.61572163 2.86190993 10.80768048 2.93521608 9 3 C8.67 2.67 8.34 2.34 8 2 C6.65252916 1.76924918 5.29622435 1.58846937 3.9375 1.4375 C2.638125 1.293125 1.33875 1.14875 0 1 C0 0.67 0 0.34 0 0 Z " fill="#099263" transform="translate(423,85)"/>
<path d="M0 0 C0.66 0.33 1.32 0.66 2 1 C-4.15034169 8.48291572 -4.15034169 8.48291572 -8 11 C-8.66 10.67 -9.32 10.34 -10 10 C-8.90033225 8.70450101 -7.79508199 7.41373929 -6.6875 6.125 C-6.07261719 5.40570313 -5.45773438 4.68640625 -4.82421875 3.9453125 C-3 2 -3 2 0 0 Z " fill="#026B4D" transform="translate(225,344)"/>
<path d="M0 0 C0.66 0.33 1.32 0.66 2 1 C2.05406122 2.93719378 2.09282025 4.87481921 2.125 6.8125 C2.14820313 7.89144531 2.17140625 8.97039062 2.1953125 10.08203125 C2 13 2 13 0 16 C-0.82622671 10.39436958 -1.06795656 5.57710648 0 0 Z " fill="#05503B" transform="translate(182,495)"/>
<path d="M0 0 C0.66 0 1.32 0 2 0 C3.32 4.29 4.64 8.58 6 13 C5.34 13.66 4.68 14.32 4 15 C3.32779649 13.06441401 2.66241923 11.12645628 2 9.1875 C1.62875 8.10855469 1.2575 7.02960938 0.875 5.91796875 C0 3 0 3 0 0 Z " fill="#0A674B" transform="translate(165,349)"/>
<path d="M0 0 C5.52677733 -0.19392201 9.75614911 0.2520497 15 2 C15 2.33 15 2.66 15 3 C9.5610835 3.21755666 5.12919186 3.10428384 0 1 C0 0.67 0 0.34 0 0 Z " fill="#056144" transform="translate(288,351)"/>
<path d="M0 0 C0.33 0.66 0.66 1.32 1 2 C1.99 2 2.98 2 4 2 C4 2.99 4 3.98 4 5 C-1.53846154 5.36923077 -1.53846154 5.36923077 -3.875 3.5 C-4.24625 3.005 -4.6175 2.51 -5 2 C-2 0 -2 0 0 0 Z " fill="#118F6E" transform="translate(124,295)"/>
<path d="M0 0 C-1.78809697 1.17213045 -3.58059125 2.33755526 -5.375 3.5 C-6.37273437 4.1496875 -7.37046875 4.799375 -8.3984375 5.46875 C-11 7 -11 7 -13 7 C-11.78836152 3.36508457 -10.89228938 3.04753785 -7.625 1.25 C-6.83351563 0.80140625 -6.04203125 0.3528125 -5.2265625 -0.109375 C-3 -1 -3 -1 0 0 Z " fill="#026D4B" transform="translate(288,145)"/>
<path d="M0 0 C-5.24749603 2.62374802 -8.08847633 3.09534716 -14 3 C-14 2.34 -14 1.68 -14 1 C-9.23692563 0.04738513 -4.8333472 -0.08333357 0 0 Z " fill="#046D4D" transform="translate(446,147)"/>
<path d="M0 0 C0.66 0.33 1.32 0.66 2 1 C-1.3 3.97 -4.6 6.94 -8 10 C-8.33 9.01 -8.66 8.02 -9 7 C-6.03 4.69 -3.06 2.38 0 0 Z " fill="#046E4E" transform="translate(226,128)"/>
<path d="M0 0 C-3.732388 3.57011026 -8.0949989 4.10913442 -13 5 C-9.83196342 0.24794513 -5.50516885 -0.32383346 0 0 Z " fill="#047B4D" transform="translate(569,75)"/>
<path d="M0 0 C-1.78953185 0.83790789 -3.58169695 1.67019396 -5.375 2.5 C-6.87160156 3.19609375 -6.87160156 3.19609375 -8.3984375 3.90625 C-11 5 -11 5 -13 5 C-13 4.34 -13 3.68 -13 3 C-11.5903653 2.29819469 -10.17192359 1.61406042 -8.75 0.9375 C-7.96109375 0.55464844 -7.1721875 0.17179688 -6.359375 -0.22265625 C-3.74006478 -1.08564091 -2.55144824 -0.93045933 0 0 Z " fill="#037350" transform="translate(488,133)"/>
<path d="M0 0 C-3.96 0.66 -7.92 1.32 -12 2 C-12.33 1.01 -12.66 0.02 -13 -1 C-11.58566794 -1.2236337 -10.16832382 -1.42826476 -8.75 -1.625 C-7.56664062 -1.79902344 -7.56664062 -1.79902344 -6.359375 -1.9765625 C-4 -2 -4 -2 0 0 Z " fill="#057F51" transform="translate(456,136)"/>
<path d="M0 0 C3.7910119 1.44950455 7.3874638 3.15172566 11 5 C10.01 5.66 9.02 6.32 8 7 C1.125 3.375 1.125 3.375 0 0 Z " fill="#ACD3C5" transform="translate(118,341)"/>
<path d="M0 0 C3 1 3 1 4.203125 2.7421875 C4.54859375 3.44601562 4.8940625 4.14984375 5.25 4.875 C5.60578125 5.57367188 5.9615625 6.27234375 6.328125 6.9921875 C7 9 7 9 6 12 C4.99466333 10.37829621 3.99588093 8.75252763 3 7.125 C2.443125 6.22007812 1.88625 5.31515625 1.3125 4.3828125 C0 2 0 2 0 0 Z " fill="#046447" transform="translate(177,339)"/>
<path d="M0 0 C0.33 0.99 0.66 1.98 1 3 C-0.75 6.1875 -0.75 6.1875 -3 9 C-3.99 9 -4.98 9 -6 9 C-6 7 -6 7 -4.6875 5.625 C-4.130625 5.08875 -3.57375 4.5525 -3 4 C-1.98199424 2.68036291 -0.97751635 1.34990354 0 0 Z " fill="#026D50" transform="translate(225,501)"/>
<path d="M0 0 C2.64 0.33 5.28 0.66 8 1 C8 1.66 8 2.32 8 3 C4.7 3 1.4 3 -2 3 C-1.34 2.01 -0.68 1.02 0 0 Z " fill="#C5E0D4" transform="translate(141,352)"/>
<path d="M0 0 C0.66 0 1.32 0 2 0 C1.34 1.65 0.68 3.3 0 5 C-0.66 5 -1.32 5 -2 5 C-2.66 6.32 -3.32 7.64 -4 9 C-4.99 9 -5.98 9 -7 9 C-5.88266271 7.49428343 -4.75589965 5.99555708 -3.625 4.5 C-2.99851563 3.6646875 -2.37203125 2.829375 -1.7265625 1.96875 C-1.15679687 1.3190625 -0.58703125 0.669375 0 0 Z " fill="#036E45" transform="translate(222,341)"/>
<path d="M0 0 C3.33523252 1.38009621 5.18607951 2.84950652 7 6 C6.67 6.99 6.34 7.98 6 9 C4.99406757 7.8803014 3.9954151 6.7540588 3 5.625 C2.443125 4.99851562 1.88625 4.37203125 1.3125 3.7265625 C0 2 0 2 0 0 Z " fill="#0A7051" transform="translate(168,327)"/>
<path d="M0 0 C-1.32 0.33 -2.64 0.66 -4 1 C-4 3.31 -4 5.62 -4 8 C-8 3.25 -8 3.25 -8 1 C-5.07175348 0.02391783 -3.04386724 -0.08226668 0 0 Z " fill="#A6C9BE" transform="translate(57,260)"/>
<path d="M0 0 C0.33 0 0.66 0 1 0 C1.08159574 4.16138263 0.98248524 7.9472484 0 12 C-0.66 12 -1.32 12 -2 12 C-1.85831863 10.56208484 -1.71148957 9.1246763 -1.5625 7.6875 C-1.48128906 6.88699219 -1.40007812 6.08648437 -1.31640625 5.26171875 C-1 3 -1 3 0 0 Z " fill="#05684A" transform="translate(217,191)"/>
<path d="M0 0 C0.99 0.33 1.98 0.66 3 1 C1.02 2.98 -0.96 4.96 -3 7 C-3.99 6.67 -4.98 6.34 -6 6 C-4.02 4.02 -2.04 2.04 0 0 Z " fill="#036E4F" transform="translate(253,168)"/>
<path d="M0 0 C3.62383901 2.41589267 4.06400328 3.83056007 5 8 C4.01 9.485 4.01 9.485 3 11 C2.49632243 9.54293274 1.99717444 8.08429904 1.5 6.625 C1.2215625 5.81289063 0.943125 5.00078125 0.65625 4.1640625 C0 2 0 2 0 0 Z " fill="#046E45" transform="translate(184,352)"/>
<path d="M0 0 C0 0.33 0 0.66 0 1 C-1.79008467 1.22151549 -3.58218162 1.42682213 -5.375 1.625 C-6.37273437 1.74101562 -7.37046875 1.85703125 -8.3984375 1.9765625 C-9.25695312 1.98429688 -10.11546875 1.99203125 -11 2 C-11.66 1.34 -12.32 0.68 -13 0 C-8.38926889 -1.29676812 -4.66159911 -0.71109139 0 0 Z " fill="#067454" transform="translate(289,175)"/>
<path d="M0 0 C0 0.66 0 1.32 0 2 C-4.43076923 4.09230769 -4.43076923 4.09230769 -7.3125 3.625 C-7.869375 3.41875 -8.42625 3.2125 -9 3 C-5.73209435 0.82139623 -3.91954654 0 0 0 Z " fill="#05523D" transform="translate(195,567)"/>
<path d="M0 0 C2.97 0.495 2.97 0.495 6 1 C4.68 2.32 3.36 3.64 2 5 C1.01 4.67 0.02 4.34 -1 4 C-0.67 2.68 -0.34 1.36 0 0 Z " fill="#38A081" transform="translate(118,293)"/>
<path d="M0 0 C1.0326802 2.78823655 1.04509293 3.8677274 0.0625 6.75 C-0.288125 7.4925 -0.63875 8.235 -1 9 C-1.66 8.01 -2.32 7.02 -3 6 C-2.01 4.02 -1.02 2.04 0 0 Z " fill="#06553C" transform="translate(173,556)"/>
<path d="M0 0 C0.33 0.66 0.66 1.32 1 2 C0.34 2 -0.32 2 -1 2 C-1.66 3.32 -2.32 4.64 -3 6 C-3.99 6 -4.98 6 -6 6 C-6 5.34 -6 4.68 -6 4 C-4.03852126 2.61061923 -2.03833424 1.2739589 0 0 Z " fill="#027849" transform="translate(293,428)"/>
<path d="M0 0 C3.63 0 7.26 0 11 0 C10.67 1.32 10.34 2.64 10 4 C9.34 3.34 8.68 2.68 8 2 C5.34462628 1.43479997 2.70855287 1.26211802 0 1 C0 0.67 0 0.34 0 0 Z " fill="#06563C" transform="translate(317,405)"/>
<path d="M0 0 C2.97 0 5.94 0 9 0 C9.33 0.66 9.66 1.32 10 2 C8.35 2.33 6.7 2.66 5 3 C5 2.34 5 1.68 5 1 C3.35 1 1.7 1 0 1 C0 0.67 0 0.34 0 0 Z " fill="#67A690" transform="translate(153,353)"/>
<path d="M0 0 C0.99 0.33 1.98 0.66 3 1 C3.73046875 2.84765625 3.73046875 2.84765625 4.1875 5.0625 C4.34605469 5.79597656 4.50460938 6.52945312 4.66796875 7.28515625 C4.83232422 8.13400391 4.83232422 8.13400391 5 9 C1.9083091 6.47043472 1.09068668 3.77545388 0 0 Z " fill="#A7CCC2" transform="translate(64,291)"/>
<path d="M0 0 C0.99 0.495 0.99 0.495 2 1 C1.67 1.66 1.34 2.32 1 3 C0.67 2.01 0.34 1.02 0 0 Z " fill="#45AAAA" transform="translate(173,324)"/>
<path d="M0 0 C4 1 4 1 4 1 Z " fill="#009F60" transform="translate(355,271)"/>
<path d="M0 0 C0.33 0.66 0.66 1.32 1 2 C0.01 1.67 -0.98 1.34 -2 1 C-1.34 0.67 -0.68 0.34 0 0 Z " fill="#00B44A" transform="translate(482,129)"/>
<path d="" fill="#158080" transform="translate(0,0)"/>
<path d="M0 0 C2 1 2 1 2 1 Z " fill="#008080" transform="translate(297,311)"/>
<path d="M0 0 C2 1 2 1 2 1 Z " fill="#00FF00" transform="translate(368,303)"/>
<path d="" fill="#BFFFBF" transform="translate(0,0)"/>
<path d="M0 0 C2 1 2 1 2 1 Z " fill="#BFFFFF" transform="translate(72,268)"/>
<path d="M0 0 C2 1 2 1 2 1 Z " fill="#00956A" transform="translate(420,142)"/>
<path d="" fill="#000000" transform="translate(0,0)"/>
<path d="" fill="#000000" transform="translate(0,0)"/>
<path d="" fill="#000000" transform="translate(0,0)"/>
<path d="" fill="#00FF00" transform="translate(0,0)"/>
<path d="" fill="#00AA55" transform="translate(0,0)"/>
<path d="" fill="#00FF00" transform="translate(0,0)"/>
<path d="" fill="#00FFFF" transform="translate(0,0)"/>
<path d="" fill="#008040" transform="translate(0,0)"/>
<path d="" fill="#00FF00" transform="translate(0,0)"/>
<path d="" fill="#408080" transform="translate(0,0)"/>
<path d="" fill="#00FF00" transform="translate(0,0)"/>
<path d="" fill="#000000" transform="translate(0,0)"/>
<path d="" fill="#00AA55" transform="translate(0,0)"/>
<path d="" fill="#008080" transform="translate(0,0)"/>
<path d="" fill="#00FF00" transform="translate(0,0)"/>
<path d="" fill="#008080" transform="translate(0,0)"/>
<path d="" fill="#00FFFF" transform="translate(0,0)"/>
<path d="" fill="#00FFFF" transform="translate(0,0)"/>
<path d="" fill="#00FF00" transform="translate(0,0)"/>
<path d="" fill="#00AA55" transform="translate(0,0)"/>
<path d="" fill="#FFFFFF" transform="translate(0,0)"/>
<path d="" fill="#00FF00" transform="translate(0,0)"/>
<path d="" fill="#00FF00" transform="translate(0,0)"/>
<path d="" fill="#00FF00" transform="translate(0,0)"/>
<path d="" fill="#00FFFF" transform="translate(0,0)"/>
<path d="" fill="#00FFFF" transform="translate(0,0)"/>
<path d="" fill="#00FFFF" transform="translate(0,0)"/>
<path d="" fill="#008080" transform="translate(0,0)"/>
<path d="" fill="#40BF80" transform="translate(0,0)"/>
<path d="" fill="#00FF00" transform="translate(0,0)"/>
<path d="" fill="#808080" transform="translate(0,0)"/>
<path d="" fill="#00FFFF" transform="translate(0,0)"/>
<path d="" fill="#808080" transform="translate(0,0)"/>
<path d="" fill="#00FFFF" transform="translate(0,0)"/>
<path d="" fill="#00FFFF" transform="translate(0,0)"/>
<path d="" fill="#FFFFFF" transform="translate(0,0)"/>
<path d="" fill="#00FFFF" transform="translate(0,0)"/>
<path d="" fill="#00FFFF" transform="translate(0,0)"/>
<path d="" fill="#00FFFF" transform="translate(0,0)"/>
<path d="" fill="#00FF00" transform="translate(0,0)"/>
<path d="" fill="#00FFFF" transform="translate(0,0)"/>
<path d="" fill="#00FF00" transform="translate(0,0)"/>
<path d="" fill="#00FF00" transform="translate(0,0)"/>
<path d="" fill="#80FFFF" transform="translate(0,0)"/>
<path d="" fill="#00FF00" transform="translate(0,0)"/>
<path d="" fill="#FFFFFF" transform="translate(0,0)"/>
<path d="" fill="#FFFFFF" transform="translate(0,0)"/>
<path d="" fill="#00FF00" transform="translate(0,0)"/>
<path d="" fill="#00FF00" transform="translate(0,0)"/>
<path d="" fill="#FFFFFF" transform="translate(0,0)"/>
<path d="" fill="#FFFFFF" transform="translate(0,0)"/>
<path d="" fill="#FFFFFF" transform="translate(0,0)"/>
<path d="" fill="#005555" transform="translate(0,0)"/>
<path d="" fill="#008080" transform="translate(0,0)"/>
<path d="" fill="#00FF00" transform="translate(0,0)"/>
<path d="" fill="#000000" transform="translate(0,0)"/>
<path d="" fill="#00FF00" transform="translate(0,0)"/>
<path d="" fill="#00FF00" transform="translate(0,0)"/>
<path d="" fill="#00FF00" transform="translate(0,0)"/>
<path d="" fill="#000000" transform="translate(0,0)"/>
<path d="" fill="#008080" transform="translate(0,0)"/>
<path d="" fill="#00FF00" transform="translate(0,0)"/>
<path d="" fill="#00FF00" transform="translate(0,0)"/>
<path d="" fill="#00FF00" transform="translate(0,0)"/>
<path d="" fill="#008080" transform="translate(0,0)"/>
<path d="" fill="#00FF00" transform="translate(0,0)"/>
<path d="" fill="#00FF00" transform="translate(0,0)"/>
<path d="" fill="#00FF00" transform="translate(0,0)"/>
<path d="" fill="#00AA55" transform="translate(0,0)"/>
<path d="" fill="#00FF00" transform="translate(0,0)"/>
<path d="" fill="#008080" transform="translate(0,0)"/>
<path d="" fill="#00FF00" transform="translate(0,0)"/>
<path d="" fill="#00FF00" transform="translate(0,0)"/>
<path d="" fill="#008080" transform="translate(0,0)"/>
<path d="" fill="#00FF00" transform="translate(0,0)"/>
<path d="" fill="#00FF00" transform="translate(0,0)"/>
<path d="" fill="#000000" transform="translate(0,0)"/>
<path d="" fill="#008080" transform="translate(0,0)"/>
<path d="" fill="#00FF00" transform="translate(0,0)"/>
<path d="" fill="#00FF00" transform="translate(0,0)"/>
<path d="" fill="#00FF00" transform="translate(0,0)"/>
<path d="" fill="#008080" transform="translate(0,0)"/>
<path d="" fill="#00FF00" transform="translate(0,0)"/>
<path d="" fill="#00FF00" transform="translate(0,0)"/>
<path d="" fill="#00FF00" transform="translate(0,0)"/>
<path d="" fill="#00FF00" transform="translate(0,0)"/>
</svg>
